<?xml version="1.0" standalone="no"?>
<!DOCTYPE svg PUBLIC "-//W3C//DTD SVG 20010904//EN"
 "http://www.w3.org/TR/2001/REC-SVG-20010904/DTD/svg10.dtd">
<svg version="1.0" xmlns="http://www.w3.org/2000/svg"
 width="512.000000pt" height="512.000000pt" viewBox="0 0 512.000000 512.000000"
 preserveAspectRatio="xMidYMid meet">

<g transform="translate(0.000000,512.000000) scale(0.100000,-0.100000)"
fill="#000000" stroke="none">
<path d="M2966 4760 c-65 -20 -118 -96 -118 -169 0 -25 63 -329 140 -676 77
-346 184 -828 237 -1070 54 -242 104 -457 112 -477 19 -48 73 -95 118 -104
117 -22 209 38 230 146 6 35 -14 131 -380 1755 -58 259 -110 482 -116 496 -31
79 -136 125 -223 99z"/>
<path d="M1470 3584 c-269 -62 -334 -89 -416 -170 -98 -98 -140 -215 -130
-359 5 -73 12 -103 40 -160 64 -135 200 -234 351 -255 59 -8 86 -6 165 11 52
11 171 36 265 55 93 20 171 37 173 38 2 2 -163 747 -193 874 -3 12 -9 22 -13
21 -4 -1 -113 -25 -242 -55z"/>
</g>
</svg>
